# xmcd
#
# Track frame offsets:
#	150
#	17885
#	40430
#	59046
#	69379
#	83965
#	99732
#	115478
#	123920
#	136266
#	152409
#	168008
#	181497
#	195592
#	202961
#
# Disc length: 3011 seconds
# Revision: 0
# Processed by: cddbd v1.5.2PL0 Copyright (c) Steve Scherf et al.
# Submitted via: dBpowerAMP V12.0
#
DISCID=ce0bc10f
DTITLE=Billy Bragg and Wilco - Mermaid Avenue
DYEAR=1998
DGENRE=Rock
TTITLE0=Walt Whitman's Niece
TTITLE1=California Stars
TTITLE2=Way over Yonder in the Minor Key
TTITLE3=Birds and Ships
TTITLE4=Hoodoo Voodoo
TTITLE5=She Came Along to Me
TTITLE6=At My Window Sad and Lonely
TTITLE7=Ingrid Bergman
TTITLE8=Christ for President
TTITLE9=I Guess I Planted
TTITLE10=One by One
TTITLE11=Eisler on the Go
TTITLE12=Hesitating Beauty
TTITLE13=Another Man's Done Gone
TTITLE14=The Unwelcome Guest
EXTD=
EXTT0=
EXTT1=
EXTT2=
EXTT3=
EXTT4=
EXTT5=
EXTT6=
EXTT7=
EXTT8=
EXTT9=
EXTT10=
EXTT11=
EXTT12=
EXTT13=
EXTT14=
PLAYORDER=
